# xmcd
#
# Track frame offsets:
#	150
#	13057
#	55340
#	87402
#	116619
#	144433
#	174085
#	198235
#	215505
#	286217
#	309505
#
# Disc length: 4433 seconds
#
# Revision: 1
# Processed by: cddbd v1.5.2PL0 Copyright (c) Steve Scherf et al.
# Submitted via: audiograbber 1.83.01
#
DISCID=96114f0b
DTITLE=Grateful Dead - 71-02-19 Capitol Theatre, Port Chester NY
DYEAR=1900
DGENRE=
TTITLE0=Tuning
TTITLE1=Truckin'
TTITLE2=Loser
TTITLE3=Cumberland Blues
TTITLE4=It Hurts Me Too
TTITLE5=Bertha
TTITLE6=Playing In The Band
TTITLE7=Dark Hollow
TTITLE8=Smokestack Lightning
TTITLE9=China Cat Sunflower
TTITLE10=I Know You Rider
EXTD=
EXTT0=
EXTT1=
EXTT2=
EXTT3=
EXTT4=
EXTT5=
EXTT6=
EXTT7=
EXTT8=
EXTT9=
EXTT10=
PLAYORDER=
